<?xml version="1.0" encoding="UTF-8"?> <svg xmlns="http://www.w3.org/2000/svg" xmlns:xlink="http://www.w3.org/1999/xlink" id="Layer_1" data-name="Layer 1" viewBox="0 0 239.49 236.76"><defs><style>.cls-1{fill:none;}.cls-2{clip-path:url(#clip-path);}.cls-3{fill:url(#radial-gradient);}.cls-4{clip-path:url(#clip-path-2);}.cls-5{fill:url(#radial-gradient-2);}.cls-6{fill:#0098ff;}</style><clipPath id="clip-path"><path class="cls-1" d="M43.9,179.08v12.24H37.35v7.11H43.9v24c0,8.26,4.08,14.33,13.37,14.33a28,28,0,0,0,9.49-1.52l-1-7.59A23.76,23.76,0,0,1,59,228.79c-4.93,0-6.83-2.56-6.83-7.49V198.43H66.29v-7.11H52.15V179.08Zm15.68-31c0,6.55,3.51,11.29,10,13.38l-3.41,1.8c-3,1.23-5,3.32-5,5.5,0,3.23,2.46,5.13,6.07,5.69-6.74.95-10.25,3.89-10.25,7.69,0,5.69,4.84,9.2,21.82,9.2,1.62,0,3.11-.05,4.52-.13-9.21,2.73-15,10.73-15,22.57,0,14.52,8.92,22.87,22.58,22.87,10.55,0,16.78-4.89,19.42-12.66.18-.54.35-1.1.5-1.67l-2.8-.84-4.51-1.34c-1.51,5.22-4.64,9.3-12.61,9.3-8.45,0-13.48-4.75-14.33-13.38h26.88c-1.66-2.1-3.24-4.25-4.77-6.45H76.72c1.14-8.26,6.17-12.33,13.76-12.33l.72,0a120.14,120.14,0,0,1-5.73-12.59c-1.9.18-4.16.28-6.92.28-11.85,0-15-1.43-15-5.22,0-2.56,2.28-5.13,7.69-5.13H82.08c-.58-2-1.12-4.06-1.59-6.12-2.87.07-5.78.15-8.58.15s-4.27-.76-4.27-2.56c0-.95.57-1.52,1.24-2.66l1.23-1.8a30.08,30.08,0,0,0,7.59,1c.54,0,1,0,1.56,0q-.51-2.87-.88-5.76h-.49c-7.78,0-10.81-3.13-10.81-8.44s3-8.53,10.31-8.63c0-2.32.12-4.62.27-6.91-11.42.21-18.08,5.59-18.08,15.25m-15.46,29h8.15v-44.3H44.12ZM2,144.59c0,6.93,4.27,11.1,15.94,13.28,9.49,1.62,12.14,3.51,12.14,7.21-.09,4.08-3.13,6.64-9.39,6.64-8.35,0-11.38-4.46-12.9-10.53L0,162.71c1.9,9.2,6.83,15.56,20.59,15.56,12,0,17.64-5.31,17.64-13.38,0-6.83-4.46-11.19-16.6-13.28-9.11-1.52-11.38-3.79-11.38-7.49s2.94-6,8.53-6c5.89,0,8.83,2.66,10.44,9.3l7.87-1.9c-2-8.63-6.92-13.85-18.31-13.85C7.68,131.69,2,136.91,2,144.59"></path></clipPath><radialGradient id="radial-gradient" cx="379.31" cy="413.54" r="1" gradientTransform="matrix(0, -194.02, -194.02, 0, 80365.48, 73897.57)" gradientUnits="userSpaceOnUse"><stop offset="0" stop-color="#102386"></stop><stop offset="0.58" stop-color="#102386"></stop><stop offset="0.87" stop-color="#1023d2"></stop><stop offset="1" stop-color="#1023d2"></stop></radialGradient><clipPath id="clip-path-2"><path class="cls-1" d="M92.62,82.41a12.08,12.08,0,0,0,8.06,3c6.5,0,11.78-5,11.78-11.18A11.19,11.19,0,0,0,105.27,64,120.62,120.62,0,0,0,92.62,82.41m-3.73-8.14a10.88,10.88,0,0,0,3.73,8.14A120.62,120.62,0,0,1,105.27,64a12.22,12.22,0,0,0-4.59-.88c-6.51,0-11.79,5-11.79,11.18m21.27-15.82a11.78,11.78,0,1,0,15.2-13.65,122.31,122.31,0,0,0-15.2,13.65M68.48,55.92c0,6.17,5.27,11.18,11.78,11.18S92,62.09,92,55.92,86.77,44.74,80.26,44.74s-11.78,5-11.78,11.18M109.9,56a11.73,11.73,0,0,0,.26,2.46,122.31,122.31,0,0,1,15.2-13.65A11.75,11.75,0,0,0,109.9,56M47.53,41.06c0,4.74,5.27,8.59,11.78,8.59s11.78-3.85,11.78-8.59-5.27-8.59-11.78-8.59-11.78,3.84-11.78,8.59m85.88-1.85a119.79,119.79,0,0,1,12.25-6.83l-.71,0c-5.69,0-10.44,2.94-11.54,6.85M89.56,40.69c0,4.75,5.27,8.59,11.78,8.59s11.78-3.84,11.78-8.59-5.27-8.59-11.78-8.59S89.56,36,89.56,40.69m63.62-11.62c.3,4.55,5.43,8.17,11.75,8.17,6.51,0,11.78-3.84,11.78-8.59a7.44,7.44,0,0,0-3.05-5.75,118.77,118.77,0,0,0-20.48,6.17m23.46-6.75a19.75,19.75,0,0,0,9.32,2c5.53,0,10.17-1.66,11.43-3.89a121.21,121.21,0,0,0-20.75,1.89M68.55,28.91c0,4.74,5.28,8.59,11.78,8.59s11.79-3.85,11.79-8.59-5.28-8.59-11.79-8.59-11.78,3.84-11.78,8.59m41.75-.26c0,4.75,5.28,8.59,11.79,8.59s11.78-3.84,11.78-8.59-5.27-8.59-11.78-8.59-11.79,3.85-11.79,8.59m42.85,0c0,.14,0,.28,0,.42a118.77,118.77,0,0,1,20.48-6.17,14,14,0,0,0-8.73-2.84c-6.51,0-11.78,3.85-11.78,8.59m-20.22-9.19c0,2.83,5.28,5.12,11.79,5.12s11.78-2.29,11.78-5.12-5.27-5.11-11.78-5.11-11.79,2.28-11.79,5.11M89.28,19.2c0,2.83,5.27,5.12,11.78,5.12S112.84,22,112.84,19.2s-5.27-5.11-11.78-5.11S89.28,16.38,89.28,19.2m84.89,0c0,1.18.93,2.26,2.47,3.12a121.21,121.21,0,0,1,20.75-1.89,2.52,2.52,0,0,0,.35-1.23c0-2.82-5.28-5.11-11.78-5.11s-11.79,2.29-11.79,5.11m-63.63-6.91c0,2.82,5.27,5.11,11.78,5.11s11.79-2.29,11.79-5.11-5.28-5.12-11.79-5.12-11.78,2.29-11.78,5.12m42.37,0c0,2.82,5.28,5.11,11.79,5.11s11.78-2.29,11.78-5.11-5.27-5.12-11.78-5.12-11.79,2.29-11.79,5.12M132.17,5.12c0,2.82,5.27,5.11,11.78,5.11s11.78-2.29,11.78-5.11S150.46,0,144,0s-11.78,2.29-11.78,5.12"></path></clipPath><radialGradient id="radial-gradient-2" cx="379.08" cy="414.15" r="1" gradientTransform="matrix(0, -195.22, -195.22, 0, 80915.94, 74161.96)" gradientUnits="userSpaceOnUse"><stop offset="0" stop-color="#102386"></stop><stop offset="0.64" stop-color="#102386"></stop><stop offset="0.72" stop-color="#10239e"></stop><stop offset="0.83" stop-color="#1023bb"></stop><stop offset="0.93" stop-color="#1023cc"></stop><stop offset="1" stop-color="#1023d2"></stop></radialGradient></defs><title>ST logo cropped</title><g class="cls-2"><rect class="cls-3" x="-8.66" y="118.07" width="128.11" height="132.32" transform="translate(-136.69 194.9) rotate(-76.45)"></rect></g><g class="cls-4"><rect class="cls-5" x="52.82" y="-43.31" width="139.63" height="172.06" transform="translate(33.29 136.97) rotate(-65.74)"></rect></g><path class="cls-6" d="M194.9,28.91c0,4.74,5.28,8.59,11.79,8.59s11.78-3.85,11.78-8.59-5.28-8.59-11.78-8.59-11.79,3.84-11.79,8.59"></path><path class="cls-6" d="M125.33,139.18c8.06,0,10.62,5.6,10.62,11.67v26.28h8.25V148.77c0-9.49-4-17.08-15.46-17.08-7.78,0-13.57,4.08-15.46,13.09h-.1V132.83h-8.25v44.3h8.25V150.85c0-7.4,4.56-11.67,12.15-11.67"></path><path class="cls-6" d="M188.13,177.13V149.52c0-11.38-5.31-17.64-17.65-17.64-11.66,0-17.74,5.79-19.25,16.13l7.87,1.14c1.23-7.31,4.74-10.25,11.1-10.25,7,0,9.68,3.79,9.68,10.72V152H165.55c-10.72,0-15.65,5.79-15.65,13.57,0,8.35,5.6,12.52,14.23,12.52,7.68,0,13.66-4.08,15.65-12.24h.1v11.29Zm-21.44-6c-6.45,0-8.63-3.22-8.63-6.64,0-3.89,3-6,8.63-6h13.19v2.08c0,6.08-5,10.53-13.19,10.53"></path><path class="cls-6" d="M136.58,229.17c-8.82,0-14.42-5.78-14.42-15.65,0-10.53,5.79-15.75,14.14-15.75,7.78,0,11.67,4.36,13.28,11.38l8-1.42c-2-11.1-8.25-17.55-21.16-17.55-13.18,0-22.67,8.63-22.67,23.24,0,14.9,9.11,23.34,23,23.34,12.52,0,19-6.73,21-17.93l-7.88-1.61c-1.71,6.73-4.55,11.95-13.19,11.95"></path><path class="cls-6" d="M186.77,190.18c-7.78,0-13.56,4.08-15.46,13.09h-.1V180H163v55.62h8.25V209.34c0-7.4,4.56-11.67,12.15-11.67,8.06,0,10.62,5.6,10.62,11.67v26.28h8.25V207.26c0-9.49-4-17.08-15.46-17.08"></path><path class="cls-6" d="M120.91,79.55A11.79,11.79,0,1,0,132.7,91.34a11.79,11.79,0,0,0-11.79-11.79"></path><path class="cls-6" d="M145.61,122.33a11.78,11.78,0,1,0-11.78-11.78,11.78,11.78,0,0,0,11.78,11.78"></path><path class="cls-6" d="M154.32,91.34a11.79,11.79,0,1,0,11.79-11.78,11.78,11.78,0,0,0-11.79,11.78"></path><path class="cls-6" d="M198.12,74.27c0-6.18-5.27-11.18-11.78-11.18s-11.78,5-11.78,11.18,5.27,11.18,11.78,11.18,11.78-5,11.78-11.18"></path><path class="cls-6" d="M206.76,44.74c-6.51,0-11.78,5-11.78,11.18s5.27,11.17,11.78,11.17,11.78-5,11.78-11.17-5.27-11.18-11.78-11.18"></path><path class="cls-6" d="M227.71,32.47c-6.51,0-11.78,3.84-11.78,8.59s5.27,8.59,11.78,8.59,11.78-3.85,11.78-8.59-5.27-8.59-11.78-8.59"></path><path class="cls-6" d="M197.46,40.69c0-4.74-5.27-8.59-11.78-8.59S173.9,36,173.9,40.69s5.27,8.59,11.78,8.59,11.78-3.84,11.78-8.59"></path><path class="cls-6" d="M133.83,74.18a11.78,11.78,0,1,0,11.78-11.79,11.78,11.78,0,0,0-11.78,11.79"></path><path class="cls-6" d="M165.34,44.21A11.78,11.78,0,1,0,177.12,56a11.78,11.78,0,0,0-11.78-11.78"></path><path class="cls-6" d="M96.1,150c0-6.55-4.45-9.11-10.43-10.15v-.19c3.32.19,5.41.28,7.68.28h6.36v-7.11H78.36l-.7,0q-.24,3.43-.27,6.91h.31c7.4,0,11.19,3.23,11.19,8.64s-3.1,8.3-10.51,8.43c.25,1.93.54,3.86.88,5.76,11-.37,16.84-4.69,16.84-12.58"></path><path class="cls-6" d="M91.07,190.19c7.25-1.76,10-5.52,10-11.26,0-6.64-4-10.53-12.81-10.53-2.43,0-5.06.07-7.75.14.48,2.06,1,4.1,1.6,6.13h6.53c4.17,0,5.6,2,5.6,4.26,0,3.21-1.73,5.12-8.74,5.8a120.14,120.14,0,0,0,5.73,12.59c7.67.26,11.53,4.68,12.08,12.31H98.64c1.52,2.2,3.11,4.36,4.77,6.45h7.46c.19-2.09.19-3.89.19-5.31,0-12.05-7-20.44-20-20.58"></path><path class="cls-6" d="M112.46,74.27A11.19,11.19,0,0,0,105.27,64,120.62,120.62,0,0,0,92.62,82.41a12.08,12.08,0,0,0,8.06,3c6.51,0,11.78-5,11.78-11.18"></path><path class="cls-6" d="M121.68,67.77a11.78,11.78,0,0,0,3.68-23,122.31,122.31,0,0,0-15.2,13.65,11.78,11.78,0,0,0,11.52,9.32"></path><path class="cls-6" d="M164.93,37.24c6.51,0,11.78-3.84,11.78-8.59a7.45,7.45,0,0,0-3.05-5.75,118.77,118.77,0,0,0-20.48,6.17c.29,4.55,5.44,8.17,11.75,8.17"></path><path class="cls-6" d="M145,49.54c6.51,0,11.78-3.85,11.78-8.59,0-4.57-4.9-8.3-11.07-8.57a119.79,119.79,0,0,0-12.25,6.83,6.3,6.3,0,0,0-.24,1.74c0,4.74,5.27,8.59,11.78,8.59"></path><path class="cls-6" d="M197.39,20.43a121.12,121.12,0,0,0-20.75,1.89,19.75,19.75,0,0,0,9.32,2c5.53,0,10.17-1.66,11.43-3.89"></path></svg> 